<svg style="width: auto; height: auto; " version="1.1" xmlns="http://www.w3.org/2000/svg" xmlns:xlink="http://www.w3.org/1999/xlink" x="0px" y="0px" viewBox="0 0 128 128" enable-background="new 0 0 128 128" xml:space="preserve">
<g class="nav-icon-official-store" fill="#fff"><path d="M25.2,120C15.7,120,8,112.3,8,102.8V25.2C8,15.7,15.7,8,25.2,8h77.6c9.5,0,17.2,7.7,17.2,17.2v77.6c0,9.5-7.7,17.2-17.2,17.2H25.2z M25.2,17.5c-4.3,0-7.7,3.4-7.7,7.7c0,0,0,0,0,0v77.6c0,4.3,3.5,7.7,7.7,7.8c0,0,0,0,0,0h77.6c4.3,0,7.7-3.5,7.7-7.7c0,0,0,0,0,0V25.2c0-4.3-3.5-7.7-7.7-7.7c0,0,0,0,0,0C102.8,17.5,25.2,17.5,25.2,17.5z M99.6,38.8c-0.3-0.1-0.7-0.2-1-0.2c0,0-0.1,0-0.1-0.1v0h-62c0,0-0.1,0-0.1,0.1v0l-1.8-4.9c-0.5-1.3-1.8-2.1-3.1-2.1c-0.4,0-0.8,0.1-1.1,0.2c-0.2,0.1-0.5,0.2-0.7,0.3c-2.1,0.8-4.1,1.9-6,3.1v3.4h5.7l15.1,39.9c0.1,0.1,0.1,0.2,0.2,0.3c0.5,1.3,1.7,2.2,3.1,2.2h36.5c1.8,0.1,3.4-1.3,3.5-3.1c0.1-1.8-1.3-3.4-3.1-3.5c-0.1,0-0.2,0-0.4,0H50L46.5,65h44.1c0.1,0,0.3,0,0.4-0.1c1-0.2,1.9-1,2.3-2l8.2-19.8c0.3-0.8,0.3-1.8-0.1-2.5C101,39.7,100.4,39.1,99.6,38.8z M39,45.2h54.4l-1.2,3.1H40.9c-0.3,0-0.6,0-0.8,0.1L39,45.2zM88,58.4H43.9L42.6,55h46.8L88,58.4z M60.9,91c0-3.9-3.2-7-7.1-6.9s-7,3.2-6.9,7.1c0,3.8,3.2,6.9,7,6.9C57.8,98,60.9,94.9,60.9,91zM84.4,91c0-3.9-3.2-7.1-7.1-7.1c-3.9,0-7.1,3.2-7.1,7.1c0,3.9,3.2,7.1,7.1,7.1C81.2,98,84.4,94.9,84.4,91z"></path></g>
</svg>