<svg width="138" height="18" fill="none" xmlns="http://www.w3.org/2000/svg"><path d="M114.304 11.76c0 1.369-1.21 2.973-3.258 2.973-1.629 0-2.839-.99-3.444-1.793l1.815-1.274c.465.52 1.117.897 1.676.897.512 0 1.024-.33 1.024-.802 0-.66-.931-.944-1.955-1.321-1.769-.66-2.281-1.698-2.281-2.925 0-1.463 1.257-2.925 3.212-2.925 1.256 0 2.327.755 3.025 1.604l-1.675 1.18c-.512-.472-.978-.661-1.443-.661-.699 0-1.024.425-1.024.802 0 .755.977.943 2.001 1.32 1.955.756 2.327 1.84 2.327 2.926zm22.436-.094h-4.003a1.748 1.748 0 001.676 1.321c.698 0 1.21-.235 1.629-.754l1.582.566c-.512 1.038-1.722 1.887-3.211 1.887-2.002 0-3.538-1.793-3.538-3.633 0-1.793 1.49-3.632 3.538-3.632 2.327 0 3.537 2.028 3.584 3.443.046.614-.419.802-1.257.802zm-.559-1.368a1.775 1.775 0 00-1.722-1.226c-.698 0-1.35.33-1.675 1.226h3.397zm-18.479-4.576h-1.955V7.61h-1.303v1.604h1.303v5.237h1.955V9.213h1.304V7.61h-1.304V5.722zm8.705 5.331c0 1.982-1.629 3.633-3.584 3.633-2.002 0-3.585-1.604-3.585-3.633 0-1.981 1.63-3.632 3.585-3.632s3.584 1.604 3.584 3.632zm-1.816 0c0-.99-.791-1.84-1.768-1.84-.978 0-1.769.802-1.769 1.84s.791 1.84 1.769 1.84c.93 0 1.768-.85 1.768-1.84zm4.376-2.83v-.614h-1.955v6.84h1.955v-3.066c0-1.273.698-2.028 1.722-2.028h.047V7.42c-.699 0-1.443.283-1.769.802zM54.91 10.77l-3.956-5.284c-.419-.566-.791-.707-1.117-.707-.745 0-1.164.471-1.164 1.132v8.539h2.095V8.506l3.956 5.283c.42.567.792.708 1.118.708.744 0 1.163-.472 1.163-1.132v-8.54H54.91v5.945zm4.469-6.369a1.16 1.16 0 00-1.164 1.18c0 .66.512 1.18 1.164 1.18a1.16 1.16 0 001.164-1.18c0-.66-.512-1.18-1.164-1.18zm6.005 3.02c-.745 0-1.397.283-1.77.802v-.567H61.66v6.794h1.955v-3.302c0-1.321.698-1.888 1.536-1.888.558 0 1.396.378 1.396 1.699v3.49h1.955V10.77c0-2.264-1.582-3.35-3.118-3.35zm-6.982 7.029h1.954V7.61h-1.954v6.84zM17.906 5.44C16.323 2.513 13.437.768 10.179.768c-3.91 0-7.913 2.594-7.913 6.982 0 3.066 2.607 4.34 2.7 4.387a.844.844 0 001.117-.377l1.49-2.83 1.07 2.122c.14.283.465.472.791.472s.605-.189.792-.472l1.07-2.123 1.443 2.784c.233.424.745.613 1.164.377.419-.236.605-.755.372-1.18L12.041 6.62c-.14-.283-.466-.472-.792-.472a.828.828 0 00-.744.472l-1.07 2.17-1.071-2.076a.828.828 0 00-.745-.472c-.326 0-.605.189-.791.472l-1.816 3.444a3.075 3.075 0 01-1.024-2.312c0-3.302 3.119-5.236 6.144-5.236 2.793 0 5.214 1.556 6.424 4.198.14.33.465.52.838.472h.186c2.141 0 3.63 1.981 3.63 3.727 0 2.123-1.629 3.821-3.77 3.821-.838 0-1.629-.33-2.048-.66a.898.898 0 00-1.07 0c-.745.613-2.84 1.981-5.819 1.981-3.49 0-6.05-1.981-6.982-3.113-.326-.378-.838-.425-1.21-.095-.372.33-.419.85-.093 1.227.326.377 3.258 3.727 8.332 3.727 2.932 0 5.12-1.132 6.377-1.982.745.425 1.675.66 2.56.66 3.072 0 5.492-2.452 5.492-5.566 0-2.642-2.001-5.378-5.073-5.567zm24.623 6.415L40.9 7.61h-2.187l2.933 6.7c-.187.896-.745 1.226-1.536 1.226h-.28v1.698h.373c1.49 0 2.28-.283 2.746-1.415.093-.283 3.305-8.209 3.305-8.209h-2.188l-1.536 4.246zm61.721 1.982h.14v.613h.186v-.613h.14v-.19h-.512v.19h.046zM36.618 4.779c-.512 0-1.071.188-1.49 1.226-.28.708-2.374 5.426-2.374 5.426h-.046s-2.048-4.718-2.374-5.426c-.42-.99-1.024-1.226-1.49-1.226-.698 0-1.303.471-1.303 1.557v8.114h2.095V9.072h.046s1.676 3.868 1.955 4.529c.326.802.698.896 1.07.896.373 0 .745-.141 1.071-.896.28-.66 1.955-4.53 1.955-4.53h.047v5.379h2.094V6.336c.047-1.086-.512-1.557-1.256-1.557zm57.625.047h1.955v9.624h-1.955v-.519h-.047c-.14.236-.884.708-1.815.708-1.909 0-3.538-1.652-3.538-3.633s1.63-3.633 3.538-3.633c.93 0 1.629.472 1.815.708h.047V4.826zm0 6.227c0-1.038-.745-1.84-1.77-1.84-1.023 0-1.814.85-1.814 1.84 0 1.038.79 1.84 1.815 1.84 1.024 0 1.769-.802 1.769-1.84zm11.031 3.114l-.139-.52h-.28v.803h.187v-.613l.186.613h.139l.187-.613v.613h.186v-.802h-.279l-.187.519zm-1.21-3.114c0 1.982-1.629 3.633-3.584 3.633-2.002 0-3.584-1.604-3.584-3.633 0-1.981 1.629-3.632 3.584-3.632s3.584 1.604 3.584 3.632zm-1.815 0c0-.99-.792-1.84-1.769-1.84-.978 0-1.769.802-1.769 1.84 0 .99.791 1.84 1.769 1.84.977 0 1.769-.85 1.769-1.84zm-30.163-5.33h-1.955v1.886h-1.303v1.604h1.303v5.237h1.955V9.213h1.304V7.61h-1.304V5.722zM85.12 7.42c-.745 0-1.397.283-1.77.802v-.567h-1.954v6.794h1.955v-3.302c0-1.321.698-1.888 1.536-1.888.558 0 1.396.378 1.396 1.699v3.49h1.955V10.77c-.046-2.264-1.582-3.35-3.118-3.35zm-4.422 3.443c0 .661-.42.802-1.304.802h-3.956c.186.85.977 1.321 1.675 1.321.699 0 1.21-.235 1.63-.754l1.582.566c-.512 1.038-1.722 1.887-3.212 1.887-2.001 0-3.537-1.793-3.537-3.633 0-1.793 1.49-3.632 3.537-3.632 2.328 0 3.538 2.028 3.585 3.443zm-1.862-.566a1.776 1.776 0 00-1.723-1.226c-.698 0-1.396.33-1.675 1.226h3.398z" fill="#fff"/></svg>